<?xml version="1.0" standalone="no"?><!DOCTYPE svg PUBLIC "-//W3C//DTD SVG 1.1//EN" "http://www.w3.org/Graphics/SVG/1.1/DTD/svg11.dtd"><svg t="1587091671929" class="icon" viewBox="0 0 1024 1024" version="1.1" xmlns="http://www.w3.org/2000/svg" p-id="4101" width="64" height="64" xmlns:xlink="http://www.w3.org/1999/xlink"><defs><style type="text/css"></style></defs><path d="M786.3 926.3h-601C111.3 926.3 51 866.1 51 792V191c0-74 60.2-134.3 134.3-134.3h528.2c13.8 0 25 11.2 25 25s-11.2 25-25 25H185.2c-46.5 0-84.3 37.8-84.3 84.3v601c0 46.5 37.8 84.3 84.3 84.3h601c46.5 0 84.3-37.8 84.3-84.3V491.5c0-13.8 11.2-25 25-25s25 11.2 25 25V792c0 74-60.2 134.3-134.2 134.3z" fill="#1787fb" p-id="4102"></path><path d="M531.1 588.7c-6.2 0-12.4-2.3-17.2-6.9-10-9.5-10.4-25.3-0.9-35.3L957.7 77.8c9.5-10 25.3-10.4 35.3-0.9s10.4 25.3 0.9 35.3L549.3 580.9c-4.9 5.1-11.6 7.8-18.2 7.8z" fill="#1787fb" p-id="4103"></path></svg>