<?xml version="1.0" standalone="no"?><!DOCTYPE svg PUBLIC "-//W3C//DTD SVG 1.1//EN" "http://www.w3.org/Graphics/SVG/1.1/DTD/svg11.dtd"><svg t="1586933585978" class="icon" viewBox="0 0 1024 1024" version="1.1" xmlns="http://www.w3.org/2000/svg" p-id="2962" width="32" height="32" xmlns:xlink="http://www.w3.org/1999/xlink"><defs><style type="text/css"></style></defs><path d="M749.996974 283.647175c-60.413951-60.411905-140.737348-93.683682-226.173183-93.683682s-165.759231 33.271778-226.172159 93.683682c-60.413951 60.413951-93.685729 140.735301-93.685729 226.172159s33.271778 165.758208 93.685729 226.171136c60.412928 60.411905 140.736325 93.682659 226.172159 93.682659s165.759231-33.270754 226.172159-93.682659c60.414975-60.411905 93.686752-140.733255 93.686752-226.171136S810.410925 344.061127 749.996974 283.647175zM720.871633 706.864106c-52.634778 52.631708-122.612549 81.617879-197.048865 81.617879-74.43427 0-144.414087-28.986171-197.047842-81.617879-52.633754-52.633754-81.619926-122.609479-81.619926-197.044772s28.986171-144.413064 81.619926-197.046818 122.612549-81.619926 197.047842-81.619926c74.433246 0 144.414087 28.986171 197.048865 81.619926 52.632731 52.633754 81.618902 122.611525 81.618902 197.046818S773.504364 654.230352 720.871633 706.864106z" p-id="2963" fill="#3f9cfc"></path><path d="M656.157749 348.360036 523.826861 480.690924 391.49495 348.360036 362.368586 377.485377 494.700497 509.817288 362.368586 642.148176 391.49495 671.276586 523.826861 538.944676 656.157749 671.276586 685.285137 642.148176 552.954249 509.817288 685.285137 377.485377Z" p-id="2964" fill="#3f9cfc"></path></svg>