<?xml version="1.0" standalone="no"?><!DOCTYPE svg PUBLIC "-//W3C//DTD SVG 1.1//EN" "http://www.w3.org/Graphics/SVG/1.1/DTD/svg11.dtd"><svg t="1588838311091" class="icon" viewBox="0 0 1024 1024" version="1.1" xmlns="http://www.w3.org/2000/svg" p-id="9184" width="64" height="64" xmlns:xlink="http://www.w3.org/1999/xlink"><defs><style type="text/css"></style></defs><path d="M512 21.333333a490.666667 490.666667 0 1 0 490.666667 490.666667A490.666667 490.666667 0 0 0 512 21.333333z m42.666667 893.653334v-96.853334a85.333333 85.333333 0 0 0-85.333334-85.333333v182.186667A405.333333 405.333333 0 0 1 109.013333 554.666667h96.853334a85.333333 85.333333 0 0 0 85.333333-85.333334H109.013333A405.333333 405.333333 0 0 1 469.333333 109.013333v96.853334a85.333333 85.333333 0 0 0 85.333334 85.333333V109.013333A405.333333 405.333333 0 0 1 914.986667 469.333333h-96.853334a85.333333 85.333333 0 0 0-85.333333 85.333334h182.186667A405.333333 405.333333 0 0 1 554.666667 914.986667z" fill="#1a8afa" p-id="9185" data-spm-anchor-id="a313x.7781069.0.i24" class="selected"></path><path d="M512 512m-85.333333 0a85.333333 85.333333 0 1 0 170.666666 0 85.333333 85.333333 0 1 0-170.666666 0Z" fill="#1a8afa" p-id="9186" data-spm-anchor-id="a313x.7781069.0.i27" class="selected"></path></svg>