<?xml version="1.0" standalone="no"?><!DOCTYPE svg PUBLIC "-//W3C//DTD SVG 1.1//EN" "http://www.w3.org/Graphics/SVG/1.1/DTD/svg11.dtd"><svg t="1587091621234" class="icon" viewBox="0 0 1024 1024" version="1.1" xmlns="http://www.w3.org/2000/svg" p-id="3230" width="64" height="64" xmlns:xlink="http://www.w3.org/1999/xlink"><defs><style type="text/css"></style></defs><path d="M512 896C271.232 896 32 686.016 32 512S271.232 128 512 128c240.96 0 480 209.6 480 384s-239.04 384-480 384z m0-64c207.36 0 416-182.976 416-320S719.36 192 512 192C304.896 192 96 375.296 96 512s208.896 320 416 320z m0-128a192 192 0 1 1 0-384 192 192 0 0 1 0 384z m0-64a128 128 0 1 0 0-256 128 128 0 0 0 0 256z" p-id="3231" fill="#1787fb"></path></svg>