<?xml version="1.0" standalone="no"?><!DOCTYPE svg PUBLIC "-//W3C//DTD SVG 1.1//EN" "http://www.w3.org/Graphics/SVG/1.1/DTD/svg11.dtd"><svg t="1587433113764" class="icon" viewBox="0 0 1024 1024" version="1.1" xmlns="http://www.w3.org/2000/svg" p-id="4589" width="64" height="64" xmlns:xlink="http://www.w3.org/1999/xlink"><defs><style type="text/css"></style></defs><path d="M540.441638 592.438751c-19.293125 19.455016-44.045054 28.15164-66.790069 7.413537-19.587472-17.858851-17.393247-40.138263 1.612221-61.376086l401.108349-414.262327c20.005579-19.048951 49.489809-28.332931 69.572988-9.365595 24.082958 22.745016 13.809569 50.635087-5.238712 70.634646l-400.339032 406.876217 0.074255 0.079608z m-6.690379 0" p-id="4590" fill="#333333"></path><path d="M939.847456 473.915813c23.911701 0.705764 35.618694 23.114957 34.6527 48.03279v337.313932c0 63.401731-51.397045 114.798107-114.798107 114.798107H170.894005c-63.401731 0-114.798776-51.397045-114.798776-114.798776V170.45516c0-63.401731 51.397045-114.798107 114.798107-114.798107H610.028007c31.7012 0 57.399054 6.296355 57.399053 37.997555s-25.697854 35.990642-57.399053 35.990643H177.381018c-27.229797 0-49.303835 22.074038-49.303835 49.303835v675.165048c0 27.229797 22.074038 49.303835 49.303835 49.303835h671.819524c27.229797 0 49.303835-22.074038 49.303835-49.303835V521.948603c-3.311407-23.915046 12.743898-47.327026 36.659613-48.03279h4.683466z" p-id="4591" fill="#333333"></path></svg>