<?xml version="1.0" standalone="no"?><!DOCTYPE svg PUBLIC "-//W3C//DTD SVG 1.1//EN" "http://www.w3.org/Graphics/SVG/1.1/DTD/svg11.dtd"><svg t="1587456835993" class="icon" viewBox="0 0 1365 1024" version="1.1" xmlns="http://www.w3.org/2000/svg" p-id="33348" width="42.65625" height="32" xmlns:xlink="http://www.w3.org/1999/xlink"><defs><style type="text/css"></style></defs><path d="M1359.35 962.136l-408.149-474.71 408.625-423.363c2.912 8.736 4.933 17.888 4.933 27.515v841.616c0 10.163-2.199 19.79-5.408 28.942zM817.727 483.564L682.41 589.524l-134.9-105.722-68.521-53.604L67.926 4.933C76.424 2.496 85.219 0.773 94.49 0.773h1175.957c9.27 0 18.007 1.723 26.505 4.16L886.128 429.9l-68.402 53.663zM5.586 962.136a85.635 85.635 0 0 1-5.408-28.942V91.578c0-9.627 2.02-18.779 4.933-27.515l408.863 423.542L5.586 962.135zM682.41 697.92L882.74 541.03l413.142 479.107a94.728 94.728 0 0 1-25.435 3.863H94.49c-8.855 0-17.293-1.605-25.435-3.803l413.38-478.929L682.409 697.92z" p-id="33349" fill="#dbdbdb"></path></svg>