<?xml version="1.0" standalone="no"?><!DOCTYPE svg PUBLIC "-//W3C//DTD SVG 1.1//EN" "http://www.w3.org/Graphics/SVG/1.1/DTD/svg11.dtd"><svg t="1589165215299" class="icon" viewBox="0 0 1024 1024" version="1.1" xmlns="http://www.w3.org/2000/svg" p-id="4671" width="64" height="64" xmlns:xlink="http://www.w3.org/1999/xlink"><defs><style type="text/css"></style></defs><path d="M771.2 662.4c-12.8-9.6-32-9.6-41.6 3.2L656 736c-9.6 9.6-25.6 12.8-38.4 6.4-70.4-38.4-134.4-86.4-188.8-140.8-54.4-54.4-102.4-118.4-140.8-188.8-6.4-12.8-3.2-28.8 6.4-38.4l73.6-73.6c12.8-12.8 12.8-28.8 3.2-41.6L268.8 134.4s0-3.2-3.2-3.2c-12.8-12.8-32-12.8-44.8 0L134.4 217.6c-41.6 41.6 64 240 249.6 428.8s387.2 291.2 428.8 249.6l86.4-86.4 3.2-3.2c9.6-12.8 9.6-35.2-6.4-44.8l-124.8-99.2z m-86.4-44.8c35.2-35.2 89.6-38.4 128-6.4l124.8 99.2c41.6 32 48 92.8 16 134.4-3.2 3.2-3.2 6.4-6.4 6.4l-86.4 86.4c-83.2 83.2-307.2-35.2-521.6-249.6S9.6 252.8 89.6 169.6l86.4-86.4c38.4-38.4 99.2-38.4 134.4 0l6.4 6.4L416 214.4c32 38.4 28.8 92.8-6.4 128l-54.4 54.4c35.2 57.6 73.6 108.8 118.4 153.6s96 83.2 153.6 118.4l57.6-51.2zM572.8 185.6c-19.2 0-32-12.8-32-32s12.8-32 32-32c176 0 320 144 320 320 0 19.2-12.8 32-32 32s-32-12.8-32-32c0-140.8-115.2-256-256-256z m0 128c-19.2 0-32-12.8-32-32s12.8-32 32-32c105.6 0 192 86.4 192 192 0 19.2-12.8 32-32 32s-32-12.8-32-32c0-70.4-57.6-128-128-128z" p-id="4672" data-spm-anchor-id="a313x.7781069.0.i6" class="selected" fill="#333333"></path></svg>