<?xml version="1.0" standalone="no"?><!DOCTYPE svg PUBLIC "-//W3C//DTD SVG 1.1//EN" "http://www.w3.org/Graphics/SVG/1.1/DTD/svg11.dtd"><svg t="1589161783537" class="icon" viewBox="0 0 1024 1024" version="1.1" xmlns="http://www.w3.org/2000/svg" p-id="2977" width="64" height="64" xmlns:xlink="http://www.w3.org/1999/xlink"><defs><style type="text/css"></style></defs><path d="M415.988 417h0.017a97.983 97.983 0 0 1-0.005-1c0-53.02 42.98-96 96-96s96 42.98 96 96-42.98 96-96 96v1h-24c-8.837 0-16 7.163-16 16v144h64c8.837 0 16-7.163 16-16v-68.539c78.488-18.13 137-88.463 137-172.461 0-97.754-79.246-177-177-177s-177 79.246-177 177c0 0.334 0 0.667 0.003 1h1.01c0.53 21.63 18.23 39 39.987 39s39.457-17.37 39.988-39zM509 928C279.25 928 93 741.75 93 512S279.25 96 509 96s416 186.25 416 416-186.25 416-416 416z m3-127c26.51 0 48-21.49 48-48s-21.49-48-48-48-48 21.49-48 48 21.49 48 48 48z" p-id="2978" fill="#e2e2e2"></path></svg>