<?xml version="1.0" standalone="no"?><!DOCTYPE svg PUBLIC "-//W3C//DTD SVG 1.1//EN" "http://www.w3.org/Graphics/SVG/1.1/DTD/svg11.dtd"><svg t="1587451898215" class="icon" viewBox="0 0 1024 1024" version="1.1" xmlns="http://www.w3.org/2000/svg" p-id="27670" width="64" height="64" xmlns:xlink="http://www.w3.org/1999/xlink"><defs><style type="text/css"></style></defs><path d="M512 1024c-281.6 0-512-230.4-512-512s230.4-512 512-512 512 230.4 512 512S793.6 1024 512 1024zM512 96C281.6 96 96 281.6 96 512s185.6 416 416 416 416-185.6 416-416S742.4 96 512 96zM652.8 512C640 512 627.2 505.6 614.4 492.8l0 0-57.6-64 0 288c0 25.6-19.2 44.8-51.2 44.8-25.6 0-44.8-19.2-44.8-44.8L460.8 428.8l-57.6 64 0 0C396.8 505.6 384 512 364.8 512 339.2 512 320 492.8 320 467.2c0-12.8 6.4-25.6 12.8-32l0 0 140.8-160 0 0C480 262.4 492.8 256 512 256c12.8 0 25.6 6.4 38.4 19.2l0 0 140.8 160 0 0C697.6 441.6 704 454.4 704 467.2 704 492.8 684.8 512 652.8 512z" p-id="27671" fill="#1787fb"></path></svg>