<?xml version="1.0" standalone="no"?><!DOCTYPE svg PUBLIC "-//W3C//DTD SVG 1.1//EN" "http://www.w3.org/Graphics/SVG/1.1/DTD/svg11.dtd"><svg t="1589363136574" class="icon" viewBox="0 0 1024 1024" version="1.1" xmlns="http://www.w3.org/2000/svg" p-id="2850" width="64" height="64" xmlns:xlink="http://www.w3.org/1999/xlink"><defs><style type="text/css"></style></defs><path d="M526.61 989.79c247.37 0 447.9-200.53 447.9-447.89S774 94 526.61 94C279.7 94 79.58 293.83 78.85 540.58v2.64C79.58 790 279.7 989.79 526.61 989.79z m0-834c213.25 0 386.12 172.87 386.12 386.12S739.86 928 526.61 928 140.5 755.14 140.5 541.9s172.86-386.12 386.11-386.12z" p-id="2851" data-spm-anchor-id="a313x.7781069.0.i0" class="selected" fill="#999999"></path><path d="M742.82 511H542.06V310.24a30.89 30.89 0 1 0-61.78 0v216.2a46.32 46.32 0 0 0 46.34 46.35h216.2a30.89 30.89 0 1 0 0-61.78z" p-id="2852" data-spm-anchor-id="a313x.7781069.0.i3" class="selected" fill="#999999"></path></svg>