<?xml version="1.0" standalone="no"?><!DOCTYPE svg PUBLIC "-//W3C//DTD SVG 1.1//EN" "http://www.w3.org/Graphics/SVG/1.1/DTD/svg11.dtd"><svg t="1588819549858" class="icon" viewBox="0 0 1024 1024" version="1.1" xmlns="http://www.w3.org/2000/svg" p-id="5765" width="64" height="64" xmlns:xlink="http://www.w3.org/1999/xlink"><defs><style type="text/css"></style></defs><path d="M510 159.4c80.3 0 148.1 68.7 148.1 150.1 0 56.8-34.1 136.7-95.7 224.6-18.5 26.1-36.5 49.7-52.1 68.9-16.1-19.4-34.7-43.1-52.7-68.9-61.7-86.8-95.7-166.5-95.7-224.6 0-82.8 66.4-150.1 148.1-150.1m0-64.9c-118.6 0-213 97.2-213 215 0 90.3 58.1 192.4 107.7 262.1 37.9 54.4 78.2 99.6 96.4 119.8 2.4 2.4 4.4 4.4 8.9 4.4 2.4 0 6.9-2.4 8.9-4.4 20.2-20.2 58.1-65.7 96.4-119.8C664.5 501.4 723 399.8 723 309.5c-0.1-117.8-96.5-215-213-215z" fill="#ff6600" p-id="5766" data-spm-anchor-id="a313x.7781069.0.i21" class="selected"></path><path d="M510 257.3c26.9 0 48.8 22.3 48.8 49.7s-21.9 49.7-48.8 49.7-48.8-22.3-48.8-49.7 21.8-49.7 48.8-49.7m0-48.6c-53.9 0-97.5 44.2-97.5 98.4s43.6 98.4 97.5 98.4 97.5-44.2 97.5-98.4c-0.1-54.2-43.7-98.4-97.5-98.4zM918.5 852.2h-813c-11.8 0-22.7-6.4-28.4-16.8-5.7-10.3-5.3-23 1-32.9l156.6-248.1c5.9-9.4 16.3-15.1 27.3-15.1l142.7-0.3h0.1c17.9 0 32.4 14.5 32.4 32.3 0 17.9-14.4 32.4-32.3 32.5l-124.8 0.2-115.9 183.4h697.6L753.5 603.2l-138.3 0.3h-0.1c-17.9 0-32.4-14.5-32.4-32.3 0-17.9 14.4-32.4 32.3-32.5l156.8-0.3h0.1c11.5 0 22.1 6.1 27.9 16l146.5 249.1c5.9 10 6 22.4 0.2 32.5s-16.3 16.2-28 16.2z" fill="#ff6600" p-id="5767" data-spm-anchor-id="a313x.7781069.0.i18" class="selected"></path></svg>