<?xml version="1.0" standalone="no"?><!DOCTYPE svg PUBLIC "-//W3C//DTD SVG 1.1//EN" "http://www.w3.org/Graphics/SVG/1.1/DTD/svg11.dtd"><svg t="1588732427286" class="icon" viewBox="0 0 1024 1024" version="1.1" xmlns="http://www.w3.org/2000/svg" p-id="2795" width="64" height="64" xmlns:xlink="http://www.w3.org/1999/xlink"><defs><style type="text/css"></style></defs><path d="M1014.225455 962.56l-174.08-186.181818a471.04 471.04 0 1 0-168.96 129.861818 37.422545 37.422545 0 1 0-30.254546-68.421818 402.618182 402.618182 0 1 1 123.345455-87.505455 36.305455 36.305455 0 0 0 0 51.665455l3.723636 2.327273s0 3.258182 2.792727 4.18909l188.509091 202.007273a36.770909 36.770909 0 0 0 26.996364 11.636364 35.84 35.84 0 0 0 24.669091-9.774546 36.770909 36.770909 0 0 0 0-51.665454z" p-id="2796" fill="#9e9e9e"></path></svg>