<?xml version="1.0" standalone="no"?><!DOCTYPE svg PUBLIC "-//W3C//DTD SVG 1.1//EN" "http://www.w3.org/Graphics/SVG/1.1/DTD/svg11.dtd"><svg t="1587018805259" class="icon" viewBox="0 0 1024 1024" version="1.1" xmlns="http://www.w3.org/2000/svg" p-id="5931" width="32" height="32" xmlns:xlink="http://www.w3.org/1999/xlink"><defs><style type="text/css"></style></defs><path d="M512.01228 775.73773c-176.824241 0-341.012697-96.55201-428.502308-251.965615l-6.616698-11.773138 6.616698-11.773138C170.998559 344.81428 335.188039 248.26227 512.01228 248.26227c176.847777 0 341.036233 96.55201 428.476724 251.989152l6.616698 11.748578-6.616698 11.747555c-87.440491 155.461701-251.628948 251.990175-428.476724 251.990175zM132.182508 512c80.536244 133.427872 224.824465 215.784578 379.853308 215.784578 155.054425 0 299.341622-82.33317 379.853307-215.784578-80.488149-133.451408-224.800929-215.784578-379.853307-215.784578-155.029866 0-299.341622 82.356706-379.853308 215.784578z" fill="#c9c9c9" p-id="5932"></path><path d="M364.582509 511.615237c0 80.999802 65.663512 146.662291 146.662291 146.662291s146.662291-65.663512 146.662291-146.662291-65.663512-146.662291-146.662291-146.662291-146.662291 65.663512-146.662291 146.662291z" fill="#c9c9c9" p-id="5933"></path></svg>